<svg width="79" height="25" viewBox="0 0 79 25" fill="none" xmlns="http://www.w3.org/2000/svg">
<path d="M6.75496 16.4178L6.75493 16.4178L6.76184 16.4215C8.0936 17.1373 9.36222 16.8213 10.3777 16.2277L10.3754 16.2316L10.3639 16.2516L10.3524 16.2715L10.3408 16.2915L10.3293 16.3115L10.3177 16.3315L10.3062 16.3515L10.2946 16.3716L10.283 16.3916L10.2714 16.4117L10.2598 16.4318L10.2482 16.4519L10.2366 16.472L10.225 16.4921L10.2134 16.5123L10.2017 16.5324L10.1901 16.5526L10.1785 16.5727L10.1668 16.5929L10.1552 16.6131L10.1435 16.6333L10.1318 16.6535L10.1201 16.6738L10.1085 16.694L10.0968 16.7142L10.0851 16.7345L10.0734 16.7547L10.0617 16.775L10.05 16.7952L10.0383 16.8155L10.0266 16.8358L10.0149 16.8561L10.0032 16.8764L9.99145 16.8967L9.97973 16.917L9.96801 16.9372L9.95629 16.9576L9.94457 16.9779L9.93284 16.9982L9.92112 17.0185L9.9094 17.0388L9.89767 17.0591L9.88595 17.0794L9.87423 17.0997L9.8625 17.12L9.85078 17.1403L9.83906 17.1606L9.82734 17.1809L9.81562 17.2012L9.8039 17.2215L9.79219 17.2418L9.78048 17.2621L9.76877 17.2823L9.75706 17.3026L9.74536 17.3229L9.73366 17.3432L9.72197 17.3634L9.71027 17.3837L9.69859 17.4039L9.6869 17.4241L9.67522 17.4444L9.66355 17.4646L9.65188 17.4848L9.64022 17.505L9.62856 17.5252L9.61691 17.5454L9.60527 17.5655L9.59363 17.5857L9.582 17.6058L9.57038 17.626L9.55876 17.6461L9.54715 17.6662L9.53555 17.6863L9.52396 17.7064L9.51238 17.7264L9.5008 17.7465L9.48923 17.7665L9.47768 17.7865L9.46613 17.8065L9.45459 17.8265L9.44306 17.8465L9.43155 17.8664L9.42004 17.8864L9.40854 17.9063L9.39706 17.9262L9.38558 17.946L9.37412 17.9659L9.36267 17.9857L9.35123 18.0055L9.3398 18.0253L9.32839 18.0451L9.31699 18.0648L9.3056 18.0846L9.29423 18.1043L9.28287 18.1239L9.27152 18.1436L9.26019 18.1632L9.24887 18.1828L9.23757 18.2024L9.22628 18.222L9.21501 18.2415L9.20375 18.261L9.19251 18.2805L9.18128 18.2999L9.17007 18.3193L9.15888 18.3387L9.14771 18.3581L9.13655 18.3774L9.12541 18.3967L9.11428 18.4159L9.10318 18.4352L9.09209 18.4544L9.08102 18.4736L9.06997 18.4927L9.05894 18.5118L9.04792 18.5309L9.03693 18.5499L9.02596 18.5689L9.015 18.5879L9.00407 18.6068L8.99316 18.6257L8.98226 18.6446L8.97139 18.6634L8.96054 18.6822L8.94971 18.701L8.93891 18.7197L8.92812 18.7384L8.91736 18.757L8.90662 18.7756L8.8959 18.7942L8.88521 18.8127L8.87454 18.8312L8.86389 18.8496L8.85327 18.868L8.84267 18.8864L8.8321 18.9047L8.82155 18.923L8.81102 18.9412L8.80052 18.9594L8.79005 18.9775L8.7796 18.9956L8.76918 19.0137L8.75878 19.0317L8.74841 19.0497L8.73807 19.0676L8.72775 19.0854L8.71747 19.1033L8.7072 19.121L8.69697 19.1388L8.68677 19.1564L8.67659 19.1741L8.66644 19.1916L8.65632 19.2092L8.64623 19.2266L8.63617 19.2441L8.62614 19.2614L8.61614 19.2788L8.60617 19.296L8.59623 19.3132L8.58632 19.3304L8.57644 19.3475L8.56659 19.3646L8.55678 19.3816L8.54699 19.3985L8.53724 19.4154L8.52752 19.4323L8.51783 19.449L8.50818 19.4658L8.49855 19.4824L8.48897 19.499L8.47941 19.5156L8.46989 19.5321L8.4604 19.5485L8.45095 19.5649L8.44153 19.5812L8.43215 19.5974L8.4228 19.6136L8.41349 19.6298L8.40421 19.6458L8.39497 19.6618L8.38577 19.6778L8.3766 19.6937L8.36747 19.7095L8.35837 19.7252L8.34932 19.7409L8.3403 19.7565L8.33131 19.7721L8.32237 19.7876L8.31346 19.803L8.3046 19.8184L8.29577 19.8337L8.28698 19.8489L8.27823 19.864L8.26952 19.8791L8.26085 19.8941L8.25222 19.9091L8.24363 19.924L8.23508 19.9388L8.22657 19.9535L8.2181 19.9682L8.20968 19.9828L8.20129 19.9973L8.19295 20.0117L8.18465 20.0261L8.17639 20.0404L8.16818 20.0546L8.16001 20.0688L8.15188 20.0829L8.1438 20.0969L8.13575 20.1108L8.12776 20.1247L8.11981 20.1384L8.1119 20.1521L8.10403 20.1657L8.09622 20.1793L8.08844 20.1928L8.08072 20.2061L8.07303 20.2194L8.0654 20.2327L8.05781 20.2458L8.05027 20.2589L8.04277 20.2719L8.03533 20.2848L8.02793 20.2976L8.02057 20.3103L8.01327 20.323L8.00601 20.3355L7.9988 20.348L7.99165 20.3604L7.98454 20.3727L7.97747 20.385L7.97046 20.3971L7.9635 20.4092L7.95659 20.4211L7.94973 20.433L7.94292 20.4448L7.93616 20.4565L7.92945 20.4681L7.92279 20.4797L7.91619 20.4911L7.90964 20.5025L7.90313 20.5137L7.89669 20.5249L7.89029 20.536L7.88395 20.547L7.87766 20.5578L7.87142 20.5686L7.86524 20.5794L7.85911 20.59L7.85303 20.6005L7.84701 20.6109L7.84105 20.6213L7.83514 20.6315L7.82928 20.6416L7.82349 20.6517L7.81774 20.6616L7.81206 20.6715L7.80642 20.6812L7.80085 20.6909L7.79533 20.7004L7.78987 20.7099L7.78447 20.7193L7.77913 20.7285L7.77384 20.7377L7.76861 20.7467L7.76344 20.7557L7.75833 20.7645L7.75327 20.7733L7.74828 20.7819L7.74335 20.7905L7.73847 20.7989L7.73366 20.8073L7.7289 20.8155L7.72421 20.8236L7.71958 20.8316L7.71501 20.8396L7.7105 20.8474L7.70605 20.8551L7.70166 20.8627L7.69734 20.8702L7.69308 20.8775L7.68888 20.8848L7.68474 20.892L7.68067 20.899L7.67666 20.906L7.67271 20.9128L7.66883 20.9195L7.66501 20.9262L7.66126 20.9327L7.65757 20.939L7.65395 20.9453L7.65039 20.9515L7.64689 20.9575L7.64347 20.9635L7.64011 20.9693L7.63681 20.975L7.63358 20.9806L7.63042 20.9861L7.62733 20.9914L7.6243 20.9967L7.62134 21.0018L7.61845 21.0068L7.61563 21.0117L7.61287 21.0165L7.61019 21.0211L7.60757 21.0257L7.60502 21.0301L7.60254 21.0344L7.60013 21.0385L7.5978 21.0426L7.59553 21.0465L7.59333 21.0503L7.5912 21.054L7.58915 21.0576L7.58716 21.061L7.58525 21.0643L7.58341 21.0675L7.58164 21.0706L7.57994 21.0735L7.57832 21.0763L7.57676 21.079L7.57529 21.0816L7.57388 21.084L7.57255 21.0863L7.57129 21.0885L7.57011 21.0905L7.569 21.0925L7.56797 21.0942L7.56701 21.0959L7.56612 21.0974L7.56531 21.0988L7.56458 21.1001L7.56392 21.1012L7.56334 21.1023L7.56284 21.1031L7.56241 21.1039L7.56206 21.1045L7.56179 21.1049L7.5616 21.1053L7.56148 21.1055L7.99445 21.3556L7.56144 21.1056C6.71082 22.5789 4.82691 23.0837 3.3536 22.233C1.8803 21.3824 1.3755 19.4985 2.22612 18.0252L1.79311 17.7752L2.22616 18.0251L2.22628 18.0249L2.22647 18.0246L2.22674 18.0241L2.22709 18.0235L2.22752 18.0228L2.22802 18.0219L2.22861 18.0209L2.22926 18.0198L2.22999 18.0185L2.2308 18.0171L2.23169 18.0156L2.23265 18.0139L2.23368 18.0121L2.23479 18.0102L2.23597 18.0081L2.23723 18.006L2.23856 18.0037L2.23997 18.0012L2.24145 17.9987L2.243 17.996L2.24462 17.9932L2.24632 17.9902L2.24809 17.9872L2.24993 17.984L2.25184 17.9807L2.25383 17.9772L2.25588 17.9737L2.25801 17.97L2.26021 17.9662L2.26248 17.9622L2.26482 17.9582L2.26722 17.954L2.2697 17.9497L2.27225 17.9453L2.27487 17.9408L2.27755 17.9361L2.28031 17.9313L2.28313 17.9265L2.28602 17.9215L2.28898 17.9163L2.29201 17.9111L2.2951 17.9057L2.29826 17.9002L2.30149 17.8947L2.30479 17.889L2.30815 17.8831L2.31157 17.8772L2.31507 17.8711L2.31863 17.865L2.32225 17.8587L2.32594 17.8523L2.32969 17.8458L2.33351 17.8392L2.33739 17.8325L2.34134 17.8256L2.34535 17.8187L2.34942 17.8116L2.35356 17.8045L2.35776 17.7972L2.36202 17.7898L2.36634 17.7823L2.37073 17.7747L2.37518 17.767L2.37969 17.7592L2.38426 17.7513L2.38889 17.7433L2.39359 17.7351L2.39834 17.7269L2.40315 17.7186L2.40803 17.7101L2.41296 17.7016L2.41796 17.6929L2.42301 17.6842L2.42812 17.6753L2.43329 17.6664L2.43852 17.6573L2.44381 17.6482L2.44915 17.6389L2.45455 17.6295L2.46001 17.6201L2.46553 17.6105L2.47111 17.6009L2.47674 17.5911L2.48242 17.5813L2.48817 17.5713L2.49397 17.5613L2.49982 17.5511L2.50573 17.5409L2.5117 17.5306L2.51772 17.5201L2.52379 17.5096L2.52992 17.499L2.5361 17.4883L2.54234 17.4775L2.54863 17.4666L2.55497 17.4556L2.56137 17.4445L2.56782 17.4334L2.57432 17.4221L2.58087 17.4108L2.58748 17.3993L2.59413 17.3878L2.60084 17.3762L2.6076 17.3645L2.61441 17.3527L2.62127 17.3408L2.62818 17.3288L2.63514 17.3168L2.64216 17.3046L2.64922 17.2924L2.65633 17.2801L2.66349 17.2677L2.67069 17.2552L2.67795 17.2426L2.68525 17.23L2.69261 17.2172L2.70001 17.2044L2.70746 17.1915L2.71495 17.1785L2.72249 17.1655L2.73008 17.1523L2.73772 17.1391L2.7454 17.1258L2.75312 17.1124L2.7609 17.0989L2.76871 17.0854L2.77658 17.0718L2.78449 17.0581L2.79244 17.0443L2.80044 17.0305L2.80848 17.0165L2.81656 17.0025L2.82469 16.9885L2.83286 16.9743L2.84108 16.9601L2.84933 16.9458L2.85763 16.9314L2.86597 16.9169L2.87436 16.9024L2.88278 16.8878L2.89125 16.8732L2.89976 16.8584L2.90831 16.8436L2.9169 16.8287L2.92553 16.8138L2.9342 16.7988L2.94291 16.7837L2.95166 16.7685L2.96045 16.7533L2.96928 16.738L2.97814 16.7227L2.98705 16.7072L2.99599 16.6917L3.00498 16.6762L3.014 16.6606L3.02305 16.6449L3.03215 16.6291L3.04128 16.6133L3.05045 16.5974L3.05965 16.5815L3.06889 16.5655L3.07817 16.5494L3.08748 16.5333L3.09683 16.5171L3.10621 16.5008L3.11563 16.4845L3.12508 16.4682L3.13457 16.4517L3.14409 16.4352L3.15365 16.4187L3.16324 16.4021L3.17286 16.3854L3.18251 16.3687L3.1922 16.3519L3.20192 16.3351L3.21167 16.3182L3.22146 16.3012L3.23127 16.2842L3.24112 16.2672L3.251 16.2501L3.26091 16.2329L3.27085 16.2157L3.28082 16.1984L3.29082 16.1811L3.30085 16.1637L3.31091 16.1463L3.321 16.1288L3.33112 16.1113L3.34127 16.0937L3.35145 16.0761L3.36165 16.0584L3.37189 16.0407L3.38215 16.0229L3.39244 16.0051L3.40275 15.9872L3.41309 15.9693L3.42346 15.9513L3.43386 15.9333L3.44428 15.9153L3.45473 15.8972L3.4652 15.879L3.4757 15.8609L3.48623 15.8426L3.49678 15.8244L3.50735 15.806L3.51795 15.7877L3.52857 15.7693L3.53922 15.7508L3.54989 15.7324L3.56058 15.7138L3.5713 15.6953L3.58204 15.6767L3.5928 15.658L3.60359 15.6394L3.61439 15.6206L3.62522 15.6019L3.63607 15.5831L3.64694 15.5643L3.65784 15.5454L3.66875 15.5265L3.67968 15.5076L3.69064 15.4886L3.70161 15.4696L3.7126 15.4505L3.72362 15.4315L3.73465 15.4124L3.7457 15.3932L3.75677 15.374L3.76786 15.3548L3.77896 15.3356L3.79009 15.3163L3.80123 15.297L3.81239 15.2777L3.82356 15.2584L3.83476 15.239L3.84596 15.2196L3.85719 15.2001L3.86843 15.1806L3.87969 15.1611L3.89096 15.1416L3.90225 15.1221L3.91355 15.1025L3.92487 15.0829L3.9362 15.0633L3.94755 15.0436L3.95891 15.0239L3.97028 15.0042L3.98167 14.9845L3.99307 14.9648L4.00449 14.945L4.01591 14.9252L4.02735 14.9054L4.0388 14.8856L4.05026 14.8657L4.06174 14.8458L4.07322 14.8259L4.08472 14.806L4.09623 14.7861L4.10774 14.7661L4.11927 14.7462L4.13081 14.7262L4.14236 14.7062L4.15391 14.6862L4.16548 14.6661L4.17706 14.6461L4.18864 14.626L4.20023 14.6059L4.21183 14.5858L4.22344 14.5657L4.23506 14.5456L4.24668 14.5255L4.25831 14.5053L4.26995 14.4852L4.28159 14.465L4.29325 14.4448L4.3049 14.4246L4.31656 14.4044L4.32823 14.3842L4.33991 14.364L4.35158 14.3438L4.36327 14.3236L4.37495 14.3033L4.38665 14.2831L4.39834 14.2628L4.41004 14.2425L4.42174 14.2223L4.43345 14.202L4.44516 14.1817L4.45687 14.1614L4.46859 14.1411L4.4803 14.1208L4.49202 14.1006L4.50374 14.0803L4.51546 14.06L4.52718 14.0396L4.53891 14.0193L4.55063 13.999L4.56235 13.9787L4.57408 13.9584L4.5858 13.9381L4.59753 13.9178L4.60925 13.8975L4.62097 13.8772L4.63269 13.8569L4.64441 13.8366L4.65613 13.8163L4.66784 13.796L4.67955 13.7757L4.69126 13.7555L4.70297 13.7352L4.71468 13.7149L4.72638 13.6946L4.73807 13.6744L4.74977 13.6541L4.76146 13.6339L4.77314 13.6136L4.78482 13.5934L4.7965 13.5732L4.80817 13.553L4.81983 13.5328L4.83149 13.5126L4.84314 13.4924L4.85479 13.4722L4.86643 13.4521L4.87806 13.4319L4.88969 13.4118L4.90131 13.3916L4.91292 13.3715L4.92452 13.3514L4.93612 13.3313L4.94771 13.3113L4.95929 13.2912L4.97086 13.2712L4.98242 13.2512L4.99397 13.2312L5.00551 13.2112L5.01322 13.1978C5.01238 13.5083 5.03807 13.8224 5.10029 14.1312C5.27982 15.0222 5.76511 15.8656 6.75496 16.4178Z" stroke="#2607e7"/>
<path d="M24.0566 22.5899C25.5299 21.7393 26.0347 19.8554 25.1841 18.3821L20.7713 10.739C19.9207 9.26569 18.0368 8.7609 16.5635 9.61151C15.0902 10.4621 14.5854 12.346 15.436 13.8194L19.8487 21.4625C20.6994 22.9358 22.5833 23.4406 24.0566 22.5899Z" stroke="#2607e7"/>
<path d="M10.562 19.6755C10.562 21.3745 11.8959 22.7267 13.5108 22.7267H13.7156C15.3305 22.7267 16.6644 21.3745 16.6644 19.6755C16.6644 17.9765 15.3305 16.6243 13.7156 16.6243H13.5108C11.8959 16.6243 10.562 17.9765 10.562 19.6755Z" stroke="#2607e7"/>
<path d="M14.8949 2.22319C16.3443 3.05998 16.8381 5.01829 15.9125 6.62143L11.2288 14.7339C10.3032 16.337 8.36036 16.8886 6.911 16.0518C5.46165 15.215 4.96788 13.2567 5.89345 11.6535L10.5772 3.54109C11.5028 1.93794 13.4456 1.3864 14.8949 2.22319Z" stroke="#2607e7"/>
<path d="M72.5892 4.42636C72.5892 6.14557 73.983 7.53928 75.7022 7.53928H75.8871C77.6063 7.53928 79 6.14557 79 4.42636V4.42636C79 2.70714 77.6063 1.31344 75.8871 1.31344H75.7022C73.983 1.31344 72.5892 2.70714 72.5892 4.42636V4.42636Z" fill="#2607e7"/>
<path d="M41.7998 24.1681C43.6787 24.1681 45.2261 23.4773 46.1656 22.3167V23.7121H51.0564V9.31596H46.1656V10.7114C45.2261 9.55082 43.6787 8.86003 41.7998 8.86003C37.6964 8.86003 34.7675 12.093 34.7675 16.514C34.7675 20.9351 37.6964 24.1681 41.7998 24.1681ZM43.1399 19.9957C41.2609 19.9957 39.7965 18.6417 39.7965 16.514C39.7965 14.3726 41.2609 13.0186 43.1399 13.0186C45.0327 13.0186 46.4834 14.3726 46.4834 16.514C46.4834 18.6417 45.0327 19.9957 43.1399 19.9957Z" fill="#2607e7"/>
<path d="M54.8638 23.7121H59.7546V16.0167C59.7546 13.9996 60.6112 12.9772 62.2139 12.9772C63.8165 12.9772 64.6731 13.9996 64.6731 16.0167V23.7121H69.5639V14.6765C69.5639 11.0291 67.6159 8.86003 64.2586 8.86003C62.2139 8.86003 60.6941 9.57846 59.7546 10.8357V3.40274H54.8638V23.7121Z" fill="#2607e7"/>
<path d="M73.1999 23.7121H78.0769V9.31596H73.1999V23.7121Z" fill="#2607e7"/>
</svg>
