<svg width="94" height="95" viewBox="0 0 94 95" fill="none" xmlns="http://www.w3.org/2000/svg">
<g clip-path="url(#clip0_57_1939)">
<path d="M88.1861 88.7684C88.0001 88.4158 87.8593 88.0408 87.7558 87.6559C85.3614 78.7544 79.164 71.8235 71.2678 69.2544L59.8606 65.5536C59.084 65.3017 58.3173 65.9638 58.4535 66.7688C58.5067 67.083 58.4203 67.4034 58.2026 67.6361C56.987 68.9356 52.5828 73.208 47 73.4715C41.4172 73.208 37.013 68.9356 35.7974 67.6361C35.5797 67.4034 35.4933 67.083 35.5465 66.7688C35.6827 65.9638 34.9159 65.3017 34.1394 65.5536L22.7322 69.2544C14.836 71.8113 8.63861 78.7539 6.24423 87.6559C6.14069 88.0408 5.99988 88.4158 5.81392 88.7684C4.082 92.0523 6.46306 96 10.1757 96H83.8243C87.5369 96 89.918 92.0523 88.1861 88.7684Z" fill="#A3C6DF"/>
<path d="M47 74C53.8539 73.7032 59 68.0752 59 68.0752L58.6015 65.9142L56.7799 56C53.8767 58.7427 50.5408 60.4406 47 60.4406C43.4592 60.4406 40.1233 58.7309 37.2201 56L35.3985 65.9142L35 68.0752C35 68.0752 40.1461 73.7032 47 74Z" fill="#F9F9FC"/>
<path d="M56.8207 57.3082C57.0608 57.0899 57.2895 56.8715 57.5295 56.6417C62.7657 51.1143 65.4982 43.461 64.7893 36.0605C64.6293 35.4399 64.5264 34.7964 64.5035 34.2103C64.5035 34.1644 64.5035 34.1184 64.5035 34.0724C64.1834 32.3143 63.6689 30.579 62.9372 28.9013C57.7925 28.6025 55.746 26.6949 51.0243 24.6265C46.8857 22.8108 42.667 20.4091 39.9803 17.1455C37.3165 18.6049 33.7609 20.9147 31.4057 23.8335C29.7022 25.948 28.6161 28.2348 27.9988 30.5905C28.7076 31.4179 29.142 32.7394 29.0849 34.2218C29.0163 35.7962 28.3989 37.6808 27.53 38.8069C27.7473 40.5766 28.1474 42.3118 28.6733 43.9436C30.5483 49.1033 33.5094 53.9757 37.1564 57.2967C40.0717 59.9512 43.4215 61.5945 46.9771 61.5945C50.5327 61.5945 53.8825 59.9398 56.7979 57.2967L56.8207 57.3082Z" fill="white"/>
<path d="M27.5529 37.8185C28.4218 36.6923 29.0506 34.8077 29.1078 33.2334C29.1649 31.751 28.7305 30.4294 28.0217 29.6021C27.3014 32.314 27.2214 35.118 27.5529 37.8185Z" fill="white"/>
<path d="M64.515 33.2103C64.5379 33.7964 64.6293 34.4399 64.8008 35.0605C64.7437 34.394 64.6408 33.7389 64.5264 33.0839C64.5264 33.1299 64.5264 33.1759 64.5264 33.2218L64.515 33.2103Z" fill="white"/>
<path d="M41.8324 8.11321C59.2559 15.2035 43.6388 15.3758 43.6388 15.3758C43.6388 15.3758 42.0839 16.0079 39.9918 17.157C42.6785 20.4091 46.8971 22.8108 51.0358 24.638C55.7575 26.7064 57.804 28.6255 62.9487 28.9128C63.6804 30.5905 64.1949 32.3257 64.515 34.0839C64.6293 34.739 64.7322 35.4055 64.7894 36.0605C65.4868 43.461 62.7543 51.1143 57.5296 56.6417C57.5296 56.6417 57.5181 56.6647 57.5067 56.6647C62.72 59.1124 70.037 58.0322 73.5926 53.4815C81.3097 43.6219 75.8677 26.4651 69.9798 17.0191C65.0295 9.0785 57.0265 2.82714 47.8346 1.2643C45.5481 0.873586 43.0786 0.804637 41.055 1.9308C39.1 3.02249 37.8996 5.07946 37.408 7.29732C38.9171 7.29732 40.4033 7.53864 41.821 8.1247L41.8324 8.11321Z" fill="#4F6172"/>
<path d="M28.0216 30.5905C28.639 28.2348 29.7251 25.948 31.4286 23.8336C33.7838 20.9147 37.3279 18.6049 40.0032 17.1455C42.0954 15.9964 43.6502 15.3643 43.6502 15.3643C43.6502 15.3643 59.2673 15.2035 41.8438 8.10173C40.4262 7.52716 38.9399 7.26285 37.4308 7.27435C23.803 7.36628 8.07152 30.0045 16.0287 49.2067C21.9623 63.5136 33.9895 53.7803 33.9895 53.7803C32.0688 51.5855 30.0109 48.0346 28.6962 43.9436C28.1703 42.3004 27.7701 40.5766 27.5529 38.8069C27.2214 36.1065 27.3014 33.3025 28.0216 30.5905Z" fill="#A3C6DF"/>
</g>
<defs>
<clipPath id="clip0_57_1939">
<rect width="94" height="95" fill="white"/>
</clipPath>
</defs>
</svg>
