<svg width="99" height="95" viewBox="0 0 99 95" fill="none" xmlns="http://www.w3.org/2000/svg">
<path d="M92.0613 87.7728C91.8676 87.4173 91.7206 87.0381 91.6121 86.6482C89.1364 77.7504 82.7338 70.8228 74.5767 68.2544L62.7268 64.534C61.9511 64.2904 61.193 64.9551 61.3331 65.756C61.3893 66.0775 61.2985 66.4061 61.0716 66.6406C59.8093 67.9455 55.2621 72.2083 49.5 72.4715C43.7379 72.2083 39.1907 67.9455 37.9284 66.6406C37.7015 66.4061 37.6107 66.0775 37.6669 65.756C37.807 64.9551 37.0489 64.2904 36.2732 64.534L24.4233 68.2544C16.2662 70.8106 9.8636 77.7499 7.38785 86.6482C7.27935 87.0381 7.13238 87.4173 6.93868 87.7728C5.16354 91.03 7.52122 95 11.2308 95H87.7692C91.4788 95 93.8365 91.03 92.0613 87.7728Z" fill="#4F6172"/>
<path d="M49.5 73C56.6395 72.6867 62 66.746 62 66.746L61.5849 64.465L59.6874 54C56.6632 56.8951 53.1883 58.6873 49.5 58.6873C45.8117 58.6873 42.3368 56.8826 39.3126 54L37.4151 64.465L37 66.746C37 66.746 42.3605 72.6867 49.5 73Z" fill="#F9F9FC"/>
<path d="M70.8965 25.8734C70.8965 25.8734 70.8965 25.8375 70.8965 25.8137C70.8965 25.8375 70.8846 25.8734 70.8846 25.8734C70.8846 25.8734 70.8965 25.8734 70.9084 25.8734H70.8965Z" fill="white"/>
<path d="M60.2719 55.418C65.4049 50.836 69.314 43.4827 71 36.2648C69.7261 35.2918 68.7395 32.7298 68.6645 30.6728C68.6396 29.9707 68.727 29.2933 68.9018 28.6898C68.8644 27.6798 68.9018 26.7683 68.9143 26.2633C69.0517 23.7383 69.3889 21.164 68.727 18.7252C68.2524 17.0008 67.3032 15.4488 66.2666 13.9831C66.0543 13.6751 65.817 13.3549 65.4673 13.1824C64.9053 12.9115 64.2309 13.1332 63.6314 13.3179C60.9962 14.1555 58.1737 14.3649 55.4386 13.9461C54.1897 13.749 53.0032 13.1332 51.8042 12.9238C50.7177 12.739 49.5187 13.0962 48.4197 13.2194C45.722 13.5396 38.7781 13.8229 34.7316 12C33.3328 12.8992 32.3587 14.4265 31.4969 15.8676C30.8225 16.9885 30.1356 18.1709 30.0482 19.4765C29.9358 21.2625 30.9349 22.8145 31.1847 24.5389C31.3721 25.8938 31.0473 27.1378 30.6727 28.4311C30.5977 28.6774 30.3355 29.6751 29.9858 30.7344C29.8983 32.5697 29.0866 34.7868 28 35.9076C29.6486 43.2363 33.5951 50.7498 38.8031 55.3934C41.9878 58.2386 45.6471 60 49.5312 60C53.4153 60 57.0746 58.2263 60.2594 55.3934L60.2719 55.418Z" fill="white"/>
<path d="M28.8138 34.5976L27.9228 26.8981C27.9228 26.8981 27.8144 26.874 27.7662 26.8619C26.0685 26.7895 24.5995 28.8049 24.5032 31.3633C24.3948 33.9218 25.6471 37.3974 27.3448 37.4577C27.8385 37.4819 28.3081 37.2043 28.7416 36.7457C29.7891 35.6475 30.5718 33.4753 30.6561 31.6771C30.1503 33.2098 29.4399 34.8993 28.8138 34.5855V34.5976Z" fill="white"/>
<path d="M69.9695 34.5976C68.6209 34.3562 68.2476 31.7616 68.1634 29.6496C68.0068 30.241 67.9105 30.9047 67.9346 31.5926C68.0068 33.608 68.946 36.1302 70.1862 37.0715C70.5113 37.3249 70.8605 37.4698 71.2217 37.4577C72.9195 37.3974 74.1838 33.9338 74.0995 31.3754C74.0152 28.829 72.5824 26.8136 70.8846 26.8498C70.8846 26.8498 70.8726 26.8498 70.8605 26.8498C70.5595 29.4324 70.2705 32.015 69.9695 34.5855V34.5976Z" fill="white"/>
<path d="M38.0973 11.4992C38.0612 11.7044 37.9648 11.8975 37.7842 12.0664C37.3387 12.513 36.6885 12.6336 36.0985 12.8509C35.7854 12.9715 35.4965 13.1405 35.2195 13.3215C39.1328 15.1076 45.8155 14.818 48.4163 14.5163C49.4759 14.3956 50.6318 14.0456 51.6794 14.2266C52.8353 14.4318 53.9792 15.0352 55.1833 15.2283C57.8202 15.6386 60.5415 15.4334 63.0821 14.6128C63.66 14.4197 64.3103 14.2146 64.8521 14.4801C65.1772 14.6369 65.406 14.9507 65.6227 15.2645C66.6221 16.7006 67.5372 18.2212 67.9948 19.9107C68.645 22.3002 68.3078 24.8224 68.1754 27.2964C68.1513 27.7912 68.1272 28.6842 68.1633 29.6738C68.2476 31.7857 68.6209 34.3683 69.9695 34.6217C70.2705 32.0512 70.5715 29.4686 70.8605 26.8861C70.8605 26.8861 70.8605 26.8499 70.8725 26.8257C71.0411 26.2102 72.9676 18.9453 72.2452 15.0473C71.0772 8.67531 66.4896 0.806917 48.1634 1.00001C35.4242 1.13276 32.8475 6.99785 32.8354 7.02198C32.7752 7.1668 32.7271 7.29955 32.6789 7.4323C33.1124 7.44437 33.5699 7.50471 34.0756 7.63746C35.075 7.91502 38.3742 9.9666 38.0973 11.4872V11.4992Z" fill="#A3C6DF"/>
<path d="M28.8138 34.5975C29.4399 34.9113 30.1503 33.2218 30.656 31.6891C31.0052 30.6513 31.2581 29.6738 31.3183 29.4324C31.6795 28.1652 32.0046 26.9464 31.812 25.6189C31.5832 23.9293 30.6079 22.4088 30.7162 20.6589C30.8005 19.3797 31.4628 18.2211 32.113 17.1229C32.9438 15.6989 33.883 14.2025 35.2316 13.3336C35.5085 13.1525 35.7975 12.9836 36.1105 12.8629C36.6885 12.6336 37.3508 12.525 37.7963 12.0785C37.9769 11.8975 38.0732 11.7044 38.1093 11.5113C38.3863 9.9907 35.075 7.93913 34.0877 7.66156C33.594 7.52881 33.1365 7.46847 32.6909 7.4564C28.8258 7.31159 27.1883 11.5113 26.5381 15.0472C25.7795 19.1142 27.9228 26.886 27.9228 26.886V26.9222L28.8138 34.6217V34.5975Z" fill="#A3C6DF"/>
</svg>
